<svg xmlns="http://www.w3.org/2000/svg" xmlns:xlink="http://www.w3.org/1999/xlink" fill="none" version="1.1" width="34.80000001192093" height="38.80000001192093" viewBox="0 0 34.80000001192093 38.80000001192093"><g><path d="M16.503600005960465,36.31820000596046L16.503600005960465,33.208200005960464Q16.702800005960466,32.49210000596047,17.397400005960463,32.49210000596047Q18.092000005960465,32.49210000596047,18.291200005960466,33.208200005960464L18.291200005960466,36.31820000596046L32.114500005960466,29.576500005960465C32.41850000596047,29.428100005960463,32.607200005960465,29.126300005960463,32.607200005960465,28.793900005960463L32.607200005960465,22.732500005960464Q32.81690000596046,22.016400005960463,33.501000005960464,22.016400005960463Q34.185100005960464,22.016400005960463,34.39480000596046,22.732500005960464L34.39480000596046,28.793900005960463C34.39480000596046,29.786200005960463,33.81810000596047,30.691600005960463,32.91130000596046,31.136600005960464L18.600400005960463,38.12380000596046C17.845600005960463,38.49210000596047,16.954400005960466,38.49210000596047,16.199600005960463,38.12380000596046L1.8835000059604645,31.136600005960464C0.9766270059604645,30.696700005960466,0.4000000059604645,29.786200005960463,0.4000000059604645,28.793900005960463L0.4000000059604645,22.732500005960464Q0.6149300059604645,22.016400005960463,1.2937740059604645,22.016400005960463Q1.9726200059604644,22.016400005960463,2.1875400059604644,22.732500005960464L2.1875400059604644,28.793900005960463C2.1875400059604644,29.126300005960463,2.3815000059604645,29.428100005960463,2.6803000059604645,29.576500005960465L16.503600005960465,36.31820000596046ZM18.291100005960466,2.4818400059604646L18.291200005960466,5.591820005960464Q18.144400005960463,6.307930005960465,17.397400005960463,6.307930005960465Q16.650400005960464,6.307930005960465,16.503600005960465,5.591820005960464L16.503600005960465,2.4818400059604646L2.6855400059604646,9.223530005960464C2.3815000059604645,9.371870005960464,2.1927800059604645,9.673660005960464,2.1927800059604645,10.006140005960464L2.1927800059604645,16.067500005960465Q2.0774600059604644,16.783600005960466,1.2963910059604644,16.783600005960466Q0.5153230059604644,16.783600005960466,0.4000000059604645,16.067500005960465L0.4000000059604645,10.001020005960465C0.4000000059604645,9.008700005960465,0.9766270059604645,8.103320005960464,1.8835000059604645,7.658310005960464L16.199600005960463,0.6762150059604645C16.954400005960466,0.30792840596046445,17.845600005960463,0.30792840596046445,18.600400005960463,0.6762150059604645L32.916500005960465,7.658310005960464C33.823400005960465,8.103320005960464,34.400000005960464,9.008700005960465,34.400000005960464,10.001020005960465L34.400000005960464,16.062400005960463Q34.316100005960465,16.778500005960463,33.506200005960466,16.778500005960463Q32.69630000596047,16.778500005960463,32.61250000596046,16.062400005960463L32.61250000596046,10.001020005960465C32.61250000596046,9.668540005960464,32.41850000596047,9.366750005960464,32.11970000596047,9.218410005960465L18.291100005960466,2.4818400059604646ZM12.472500005960464,13.330900005960464Q12.593000005960464,13.024000005960465,12.852500005960465,13.024000005960465Q13.112000005960464,13.024000005960465,13.232600005960464,13.330900005960464L18.836300005960464,25.510000005960464Q18.836300005960464,26.226100005960465,18.010700005960466,26.226100005960465Q17.185100005960464,26.226100005960465,16.765700005960465,25.510000005960464L15.450000005960465,22.543200005960465L10.092570005960464,22.543200005960465L8.698180005960465,25.510000005960464Q8.278820005960466,26.226100005960465,7.471540005960464,26.226100005960465Q6.664260005960465,26.226100005960465,6.664260005960465,25.510000005960464L12.472500005960464,13.330900005960464ZM14.684600005960464,20.809200005960463L12.828900005960465,16.655800005960465L10.878900005960464,20.809200005960463L14.684600005960464,20.809200005960463ZM23.396900005960465,20.302800005960464L27.276000005960466,25.510000005960464Q27.276000005960466,26.226100005960465,26.329900005960464,26.226100005960465Q25.383700005960463,26.226100005960465,24.964300005960464,25.510000005960464L21.389200005960465,20.507400005960463L21.048500005960463,20.507400005960463L21.048500005960463,25.510000005960464Q20.870200005960463,26.226100005960465,20.102300005960466,26.226100005960465Q19.334300005960465,26.226100005960465,19.156100005960464,25.510000005960464Q19.156100005960464,14.108400005960464,19.156100005960464,13.852700005960465C19.156100005960464,13.596900005960464,19.428700005960465,13.290000005960465,19.738000005960465,13.290000005960465Q20.047200005960466,13.290000005960465,21.368200005960464,13.290000005960465C23.024700005960465,13.290000005960465,24.219900005960465,13.591800005960465,24.953800005960463,14.200500005960464C25.766300005960463,14.875700005960464,26.170000005960464,15.765700005960465,26.170000005960464,16.875700005960464C26.170000005960464,17.740200005960464,25.918400005960464,18.487000005960464,25.409900005960463,19.105900005960464C24.901400005960465,19.729900005960463,24.230400005960465,20.128900005960464,23.396900005960465,20.302800005960464ZM21.043200005960465,18.901300005960465L21.646100005960463,18.901300005960465C23.433600005960464,18.901300005960465,24.330000005960464,18.231200005960464,24.330000005960464,16.901300005960465C24.330000005960464,15.648100005960465,23.459800005960464,15.024000005960465,21.719500005960466,15.024000005960465L21.048500005960463,15.024000005960465L21.043200005960465,18.901300005960465Z" fill="#C1AC8A" fill-opacity="1" style="mix-blend-mode:passthrough"/><path d="M32.21520000596047,16.108900005960464Q32.340500005960465,17.178500005960466,33.506200005960466,17.178500005960466Q34.67200000596046,17.178500005960466,34.797300005960466,16.108900005960464L34.80000000596046,16.085800005960465L34.80000000596046,10.001020005960465Q34.80000000596046,8.137000005960465,33.09270000596047,7.299220005960464L18.775800005960466,0.3166941059604645Q17.400000005960464,-0.35453299403953553,16.024200005960466,0.31671960596046445L1.7081600059604645,7.2987900059604645Q-9.9403953551791e-7,8.137000005960465,5.960464455334602e-9,10.001020005960465L5.960464455334602e-9,16.099500005960465L0.005088005960464492,16.131100005960462Q0.17458500596046447,17.183600005960464,1.2963910059604644,17.183600005960464Q2.4182000059604647,17.183600005960464,2.5876900059604644,16.131100005960462L2.5927800059604644,16.099500005960465L2.5927800059604644,10.006140005960464Q2.5927800059604644,9.713850005960465,2.8609300059604643,9.583020005960465L16.103600005960466,3.1220700059604645L16.103600005960466,5.632390005960464L16.111800005960465,5.672130005960464Q16.324100005960464,6.707930005960464,17.397400005960463,6.707930005960464Q18.470700005960463,6.707930005960464,18.683000005960466,5.672140005960465L18.691200005960464,5.632390005960464L18.691200005960464,3.1216400059604643L31.944500005960464,9.578010005960465Q32.212500005960464,9.711040005960465,32.212500005960464,10.001020005960465L32.212500005960464,16.085800005960465L32.21520000596047,16.108900005960464ZM34.000000005960466,16.036000005960464Q33.947500005960464,16.378500005960465,33.506200005960466,16.378500005960465Q33.065000005960464,16.378500005960465,33.01250000596046,16.036000005960464L33.01250000596046,10.001020005960465Q33.01250000596046,9.215040005960464,32.294900005960464,8.858810005960464L17.891100005960464,1.8420400059604645L17.891200005960464,5.546940005960464Q17.798800005960466,5.9079300059604645,17.397400005960463,5.9079300059604645Q16.996000005960465,5.9079300059604645,16.903600005960463,5.546950005960465L16.903600005960463,1.8416200059604644L2.5101400059604644,8.864030005960464Q1.7927800059604644,9.214030005960465,1.7927800059604644,10.006140005960464L1.7927800059604644,16.031700005960467Q1.7203000059604645,16.383600005960464,1.2963910059604644,16.383600005960464Q0.8724810059604644,16.383600005960464,0.8000000059604645,16.031700005960467L0.8000000059604645,10.001020005960465Q0.8000000059604645,8.635560005960464,2.0588400059604646,8.017830005960464L16.375000005960466,1.0357100059604645Q17.400000005960464,0.5356050059604645,18.425100005960463,1.0357360059604646L32.740300005960464,8.017410005960464Q34.000000005960466,8.635560005960464,34.000000005960466,10.001020005960465L34.000000005960466,16.036000005960464ZM13.600300005960465,13.173300005960465Q13.379200005960465,12.624000005960465,12.852500005960465,12.624000005960465Q12.327200005960464,12.624000005960465,12.105800005960464,13.170500005960465L6.264260005960464,25.419500005960465L6.264260005960464,25.510000005960464Q6.264260005960464,26.047900005960464,6.600640005960464,26.346300005960465Q6.916050005960464,26.626100005960463,7.471540005960464,26.626100005960463Q8.508120005960464,26.626100005960463,9.043350005960464,25.712100005960465L9.052490005960465,25.696500005960466L10.346540005960465,22.943200005960463L15.189800005960464,22.943200005960463L16.409200005960464,25.692700005960464L16.420500005960463,25.712100005960465Q16.955800005960466,26.626100005960463,18.010700005960466,26.626100005960463Q18.764100005960465,26.626100005960463,19.054300005960464,26.204400005960466Q19.407300005960465,26.626100005960463,20.102300005960466,26.626100005960463Q21.182900005960466,26.626100005960463,21.436600005960464,25.606600005960466L21.448500005960465,25.559000005960463L21.448500005960465,21.278300005960464L24.628800005960464,25.728500005960463Q25.165000005960465,26.626100005960463,26.329900005960464,26.626100005960463Q27.676000005960464,26.626100005960463,27.676000005960464,25.510000005960464L27.676000005960464,25.377400005960464L24.064900005960464,20.529900005960464Q25.055500005960464,20.174000005960465,25.720000005960465,19.358600005960465Q26.570000005960466,18.323900005960464,26.570000005960466,16.875700005960464Q26.570000005960466,15.023400005960465,25.209500005960464,13.892900005960465Q24.000400005960465,12.890000005960465,21.368200005960464,12.890000005960465L19.738000005960465,12.890000005960465Q19.345500005960464,12.890000005960465,19.045700005960466,13.195100005960464Q18.756100005960466,13.489900005960465,18.756100005960466,13.852700005960465L18.756100005960466,24.378600005960465L13.600300005960465,13.173300005960465ZM19.556100005960463,25.455800005960466L19.556100005960463,13.852700005960465Q19.556100005960463,13.690000005960464,19.738000005960465,13.690000005960464L21.368200005960464,13.690000005960464Q23.711800005960466,13.690000005960464,24.698200005960466,14.508200005960465Q25.770000005960465,15.398800005960464,25.770000005960465,16.875700005960464Q25.770000005960465,18.037400005960464,25.099800005960464,18.853200005960463Q24.426600005960463,19.679300005960464,23.315200005960463,19.911200005960463L22.701800005960465,20.039200005960463L26.857000005960465,25.617000005960463Q26.774000005960463,25.826100005960466,26.329900005960464,25.826100005960466Q25.613000005960465,25.826100005960466,25.309500005960466,25.307800005960466L25.300300005960466,25.292200005960463L21.595000005960465,20.107400005960464L20.648500005960464,20.107400005960464L20.648500005960464,25.455800005960466Q20.533500005960466,25.826100005960466,20.102300005960466,25.826100005960466Q19.671000005960465,25.826100005960466,19.556100005960463,25.455800005960466ZM18.429800005960466,25.583400005960463L12.864400005960464,13.487800005960464L12.860300005960465,13.477200005960464L12.852500005960465,13.424000005960464L12.844800005960465,13.477200005960464L12.839600005960465,13.490400005960465L7.071040005960464,25.586300005960464Q7.116790005960464,25.826100005960466,7.471540005960464,25.826100005960466Q8.041320005960465,25.826100005960466,8.344340005960465,25.322400005960464L9.838590005960464,22.143200005960466L15.710100005960465,22.143200005960466L17.121700005960463,25.326000005960463Q17.424900005960463,25.826100005960466,18.010700005960466,25.826100005960466Q18.383600005960464,25.826100005960466,18.429800005960466,25.583400005960463ZM21.719500005960466,14.624000005960465L20.649000005960463,14.624000005960465L20.648500005960464,15.023500005960464L20.642700005960464,19.301300005960464L21.646100005960463,19.301300005960464Q23.118900005960466,19.301300005960464,23.897500005960463,18.720700005960463Q24.730000005960463,18.099800005960464,24.730000005960463,16.901300005960465Q24.730000005960463,15.756600005960465,23.910800005960464,15.167900005960464Q23.154000005960466,14.624000005960465,21.719500005960466,14.624000005960465ZM21.447900005960463,15.424000005960464L21.443800005960465,18.501300005960463L21.646100005960463,18.501300005960463Q23.930000005960466,18.501300005960463,23.930000005960466,16.901300005960465Q23.930000005960466,15.424000005960464,21.719500005960466,15.424000005960464L21.447900005960463,15.424000005960464ZM12.837900005960465,15.695400005960465L10.249190005960465,21.209200005960465L15.301400005960465,21.209200005960465L12.837900005960465,15.695400005960465ZM11.508600005960464,20.409200005960464L14.067800005960464,20.409200005960464L12.819900005960465,17.616200005960465L11.508600005960464,20.409200005960464ZM2.5706600059604643,22.617500005960466Q2.2702000059604646,21.616400005960465,1.2937740059604645,21.616400005960465Q0.3173562059604645,21.616400005960465,0.016884005960464465,22.617500005960466L5.960464455334602e-9,22.673700005960466L5.960464455334602e-9,28.793900005960463Q5.960464455334602e-9,30.667500005960463,1.7089300059604644,31.496500005960463L16.024100005960463,38.483300005960466Q17.400000005960464,39.15460000596047,18.775800005960466,38.483300005960466L33.08680000596046,31.496000005960465Q34.79480000596046,30.657900005960464,34.79480000596046,28.793900005960463L34.79480000596046,22.675100005960463L34.77860000596046,22.620100005960463Q34.484800005960466,21.616400005960465,33.501000005960464,21.616400005960465Q32.51720000596046,21.616400005960465,32.22330000596047,22.620100005960463L32.207200005960466,22.675100005960463L32.207200005960466,28.793900005960463Q32.207200005960466,29.086100005960464,31.939100005960466,29.217000005960465L18.691200005960464,35.67800000596046L18.691200005960464,33.15360000596046L18.676500005960463,33.101000005960465Q18.395900005960463,32.09210000596046,17.397400005960463,32.09210000596046Q16.398900005960463,32.09210000596046,16.118200005960464,33.101000005960465L16.103600005960466,33.15360000596046L16.103600005960466,35.67800000596046L2.8556400059604643,29.216900005960465Q2.5875400059604643,29.083800005960466,2.5875400059604643,28.793900005960463L2.5875400059604643,22.673700005960466L2.5706600059604643,22.617500005960466ZM0.8000000059604645,22.796000005960465Q0.9359740059604644,22.416400005960465,1.2937740059604645,22.416400005960465Q1.6515700059604645,22.416400005960465,1.7875400059604645,22.796000005960465L1.7875400059604645,28.793900005960463Q1.7875400059604645,29.579800005960465,2.5049600059604646,29.936000005960466L16.903600005960463,36.95830000596047L16.903600005960463,33.267500005960464Q17.029500005960465,32.892100005960465,17.397400005960463,32.892100005960465Q17.765300005960466,32.892100005960465,17.891200005960464,33.267500005960464L17.891200005960464,36.95830000596047L32.28990000596046,29.936000005960466Q33.00720000596046,29.586000005960464,33.00720000596046,28.793900005960463L33.00720000596046,22.794600005960465Q33.13980000596047,22.416400005960465,33.501000005960464,22.416400005960465Q33.86220000596047,22.416400005960465,33.994800005960464,22.794600005960465L33.994800005960464,28.793900005960463Q33.994800005960464,30.159300005960464,32.73580000596046,30.777100005960463L18.425000005960463,37.764300005960465Q17.400000005960464,38.26440000596047,16.375000005960466,37.764300005960465L2.0580800059604645,30.776700005960464Q0.8000000059604645,30.166400005960465,0.8000000059604645,28.793900005960463L0.8000000059604645,22.796000005960465Z" fill-rule="evenodd" fill="#C1AC8A" fill-opacity="1"/></g></svg>